# xmcd
#
# Track frame offsets:
#	150
#	19115
#	42958
#	65380
#	84190
#	102522
#	123626
#	145314
#	165384
#	188255
#	207882
#	220755
#	240907
#	264605
#	276746
#	300209
#	326338
# Disc length: 4618 seconds
# Revision: 1
# Processed by: cddbd v1.5.1PL0 Copyright (c) Steve Scherf et al.
#
# Submitted via: libkcddb 0.10
#
DISCID=e3120811
DTITLE=Eminem Encore - Eminem
DYEAR=1900
DGENRE=
TTITLE0=Mockingbird
TTITLE1=Mosh
TTITLE2=Like Toy Soldiers
TTITLE3=Just Lose It
TTITLE4=Crazy In Love
TTITLE5=We As Americans
TTITLE6=Love You More
TTITLE7=Ass Like That
TTITLE8=My 1st Single
TTITLE9=Evil Deeds
TTITLE10=Ricky Ticky Toc
TTITLE11=One Shot 2 Shot 
TTITLE12=Rain Man
TTITLE13=Never Enough
TTITLE14=Spend Some Time
TTITLE15=Yellow Brick Road
TTITLE16=Big Weenie
EXTD=
EXTT0=
EXTT1=
EXTT2=
EXTT3=
EXTT4=
EXTT5=
EXTT6=
EXTT7=
EXTT8=
EXTT9=
EXTT10=
EXTT11=
EXTT12=
EXTT13=
EXTT14=
EXTT15=
EXTT16=
PLAYORDER=
